-
 
http://www.Speed. Cd       the fast  and The Hottest Private Tracker on the net 
http://www.Speed. Cd

Please Seed back to make the speed Faster!!
 ............ NFO .............
-
 
http://www.Speed. Cd[IMG]http://i.imgur.com/HcZNfZV.jpg[/IMG]

Sources: Video - CAM.XviD.HUN-BEOWULF ... Audio - SKA/MiNiSTRY - Thanks Both

^^^ Pretty nice source, all i did was resize to correct the AR, adjusted hue, sat, bright, contrast and sharpen.
 
http://www.imdb.com/title/tt0481499/

The world's very first prehistoric family goes on a road trip to an uncharted and fantastical world.

General
Complete name                            : The Croods 2013 TS x264 AAC-OFFLiNE.mp4
Format                                   : MPEG-4
Format profile                           : Base Media
Codec ID                                 : isom
File size                                : 726 MiB
Duration                                 : 1h 29mn
Overall bit rate mode                    : Variable
Overall bit rate                         : 1 134 Kbps
Encoded date                             : UTC 2013-03-28 03:54:09
Tagged date                              : UTC 2013-03-28 03:54:09

Video
ID                                       : 1
Format                                   : AVC
Format/Info                              : Advanced Video Codec
Format profile                           : High@L4.1
Format settings, CABAC                   : Yes
Format settings, ReFrames                : 3 frames
Codec ID                                 : avc1
Codec ID/Info                            : Advanced Video Coding
Duration                                 : 1h 29mn
Bit rate mode                            : Variable
Bit rate                                 : 995 Kbps
Maximum bit rate                         : 40.0 Mbps
Width                                    : 720 pixels
Height                                   : 252 pixels
Display aspect ratio                     : 2.857
Frame rate mode                          : Constant
Frame rate                               : 25.000 fps
Color space                              : YUV
Chroma subsampling                       : 4:2:0
Bit depth                                : 8 bits
Scan type                                : Progressive
Bits/(Pixel*Frame)                       : 0.219
Stream size                              : 636 MiB (88%)
Writing library                          : x264 core 130 r2273 b3065e6

Audio
ID                                       : 2
Format                                   : AAC
Format/Info                              : Advanced Audio Codec
Format profile                           : LC
Codec ID                                 : 40
Duration                                 : 1h 29mn
Bit rate mode                            : Variable
Bit rate                                 : 136 Kbps
Maximum bit rate                         : 157 Kbps
Channel(s)                               : 2 channels
Channel positions                        : Front: L R
Sampling rate                            : 48.0 KHz
Compression mode                         : Lossy
Stream size                              : 86.8 MiB (12%)
Language                                 : English
Encoded date                             : UTC 2013-03-28 03:47:20
Tagged date                              : UTC 2013-03-28 03:55:11



[img]http://i.imgur.com/ia7jGuf.png[/img]
[img]http://i.imgur.com/XvWUvvC.png[/img]
[img]http://i.imgur.com/XDc0GVp.png[/img]
[img]http://i.imgur.com/uOTMP8D.png[/img]
[img]http://i.imgur.com/objef1F.png[/img]
[img]http://i.imgur.com/h8ndRLt.png[/img]
[img]http://i.imgur.com/25Va03H.png[/img]
[img]http://i.imgur.com/RVhS1Eg.png[/img]
[img]http://i.imgur.com/B0c7ewm.png[/img]

Greets: To Our Friends